HIERARCHY
ROOT Hips
{
  OFFSET 265.287 66.7526 -254.649
  CHANNELS 6 Xposition Yposition Zposition Zrotation Xrotation Yrotation
  JOINT LeftUpLeg
  {
    OFFSET 8.64259 1.95398 -2.38835
    CHANNELS 3 Zrotation Xrotation Yrotation
    JOINT LeftLeg
    {
      OFFSET 43.7702 0 0
      CHANNELS 3 Zrotation Xrotation Yrotation
      JOINT LeftFoot
      {
        OFFSET 40.6238 0 0
        CHANNELS 3 Zrotation Xrotation Yrotation
        JOINT LeftToeBase
        {
          OFFSET 12.7242 0 0
          CHANNELS 3 Zrotation Xrotation Yrotation
          End Site
          {
            OFFSET 0 0 0
          }
        }
      }
    }
  }
  JOINT RightUpLeg
  {
    OFFSET -8.2249 1.95398 -2.59336
    CHANNELS 3 Zrotation Xrotation Yrotation
    JOINT RightLeg
    {
      OFFSET 43.5653 0 0
      CHANNELS 3 Zrotation Xrotation Yrotation
      JOINT RightFoot
      {
        OFFSET 40.6238 0 0
        CHANNELS 3 Zrotation Xrotation Yrotation
        JOINT RightToeBase
        {
          OFFSET 12.7242 0 0
          CHANNELS 3 Zrotation Xrotation Yrotation
          End Site
          {
            OFFSET 0 0 0
          }
        }
      }
    }
  }
  JOINT Spine
  {
    OFFSET 0.165834 0.87714 6.61349
    CHANNELS 3 Zrotation Xrotation Yrotation
    JOINT Spine1
    {
      OFFSET 7.38963 1.71661e-005 0
      CHANNELS 3 Zrotation Xrotation Yrotation
      JOINT Spine2
      {
        OFFSET 11.9445 1.14441e-005 0
        CHANNELS 3 Zrotation Xrotation Yrotation
        JOINT Spine3
        {
          OFFSET 14.7254 4.19617e-005 0
          CHANNELS 3 Zrotation Xrotation Yrotation
          JOINT Spine4
          {
            OFFSET 10.9679 0 0
            CHANNELS 3 Zrotation Xrotation Yrotation
            JOINT RightShoulder
            {
              OFFSET 2.46616 -1.6653 3.69651
              CHANNELS 3 Zrotation Xrotation Yrotation
              JOINT RightArm
              {
                OFFSET 13.0012 0 0
                CHANNELS 3 Zrotation Xrotation Yrotation
                JOINT RightForeArm
                {
                  OFFSET 28.7848 1.52588e-005 0
                  CHANNELS 3 Zrotation Xrotation Yrotation
                  JOINT RightHand
                  {
                    OFFSET 26.5688 1.52588e-005 0
                    CHANNELS 3 Zrotation Xrotation Yrotation
                    End Site
                    {
                      OFFSET 0 0 0
                    }
                  }
                }
              }
            }
            JOINT LeftShoulder
            {
              OFFSET 2.38034 -1.29275 -3.7523
              CHANNELS 3 Zrotation Xrotation Yrotation
              JOINT LeftArm
              {
                OFFSET 16.3182 6.10351e-005 0
                CHANNELS 3 Zrotation Xrotation Yrotation
                JOINT LeftForeArm
                {
                  OFFSET 27.0901 0 0
                  CHANNELS 3 Zrotation Xrotation Yrotation
                  JOINT LeftHand
                  {
                    OFFSET 24.5451 1.52588e-005 0
                    CHANNELS 3 Zrotation Xrotation Yrotation
                    End Site
                    {
                      OFFSET 0 0 0
                    }
                  }
                }
              }
            }
            JOINT Neck
            {
              OFFSET 5.0226 -0.0266342 0
              CHANNELS 3 Zrotation Xrotation Yrotation
              JOINT Head
              {
                OFFSET 6.69364 2.86102e-005 0
                CHANNELS 3 Zrotation Xrotation Yrotation
                End Site
                {
                  OFFSET 0 0 0
                }
              }
            }
          }
        }
      }
    }
  }
}
MOTION
Frames:	12
Frame Time:	0.0416667
-350.042 80.8374 -9.89254 36.8143 34.7995 111.493 -141.384 33.1447 94.775 5.45145 23.9178 -44.8463 10.4608 -7.34119 -33.6663 74.8009 78.097 173.305 142.534 69.3414 74.9101 -61.8863 -15.8641 19.7326 -78.274 64.3229 59.6681 120.493 49.1294 75.8319 -1.88574 2.50013 -86.7384 21.8901 -1.85455 7.15079 10.2004 -1.53885 7.22493 -12.2175 -3.91396 6.26876 7.79514 -3.91395 6.26876 142.262 -87.6076 -41.1541 -17.6444 46.6223 82.3494 -113.202 23.829 -94.1814 -4.49106 1.7623 -54.6983 -85.8847 -34.7377 82.0788 102.34 -2.81751 -126.954 -118.976 46.0204 -16.0983 116.91 13.0636 3.35574 -12.2271 -35.7022 -50.2681 154.648 20.9756 -11.3178 
-350.571 80.8715 -10.0434 36.7586 34.5482 111.161 -140.925 32.8769 94.5985 9.14294 26.4779 -47.1664 12.1724 -7.15884 -33.3199 68.9908 73.2502 177.44 141.904 69.2755 76.1155 -62.8012 -16.5691 19.2438 -78.6878 64.8027 61.3082 118.777 49.0994 77.3213 -1.94301 2.36728 -86.8082 22.1619 -1.99396 7.05454 10.473 -1.68238 7.13488 -11.9517 -4.01825 6.13497 8.06098 -4.01825 6.13497 130.701 -87.5206 -52.9299 -18.5655 45.7233 82.5999 -122.399 25.028 -90.4671 -3.22996 1.19892 -55.5658 -85.5266 -36.4396 83.0536 104.165 -2.61352 -127.244 -120.914 42.8574 -15.2898 117.879 11.5412 2.32861 -11.8718 -35.2288 -48.8087 154.798 20.7349 -11.3422 
-352.069 80.9675 -10.4709 36.6126 33.8442 110.227 -139.725 32.0178 94.108 20.0716 32.4646 -54.1766 17.5698 -6.90561 -31.9431 56.9972 55.8602 -174.698 140.076 68.7848 79.6651 -65.1613 -18.3915 17.8089 -80.0027 66.1557 66.0865 114.069 48.7712 81.2946 -2.10564 1.99091 -87.0261 22.9339 -2.4008 6.74974 11.2472 -2.1021 6.84822 -11.198 -4.31533 5.72154 8.81462 -4.31531 5.72154 104.212 -86.8073 -80.0682 -21.0816 43.0843 83.1977 -144.278 25.7636 -81.4531 -1.09398 0.203227 -57.9653 -84.2056 -41.2824 86.1217 109.43 -2.051 -128.067 -125.708 33.4998 -13.5795 119.747 6.46019 -0.734876 -10.6877 -33.6362 -44.4809 155.162 20.2071 -11.2736 
-354.295 81.0558 -11.3263 28.5703 31.2853 110.612 -138.602 26.1133 90.7673 34.9985 33.5349 -63.503 27.514 -5.8879 -30.0078 43.738 14.0858 -166.251 147.722 74.2906 72.127 -68.3655 -20.7192 16.3333 -82.4944 68.2657 74.039 107.444 47.6676 86.5393 -2.36497 0.90996 -87.9229 25.6876 -3.00646 6.58427 14.0017 -2.71459 6.70947 -8.45587 -4.84272 5.38153 11.5568 -4.84271 5.38153 82.7976 -84.9658 -102.58 -24.8235 38.8182 83.8593 -166.325 23.8862 -72.938 -0.576129 -0.045479 -60.2073 -81.21 -48.5687 91.6667 117.442 -1.01122 -129.419 -131.465 19.3456 -12.1258 119.542 -2.07299 -5.45902 -8.33724 -30.213 -37.4207 155.552 20.154 -10.6777 
-358.708 82.0803 -9.18973 155.546 36.5854 70.5801 -155.612 35.2156 -177.565 120.699 46.4212 176.489 48.1048 -4.53845 -15.5168 34.6596 -60.4068 -156.564 125.422 -34.0785 53.7351 -66.5584 -23.2911 1.18668 -85.9909 70.049 80.5584 100.146 45.6574 91.9035 -2.10983 11.9098 -90.0348 3.04775 -4.22827 -0.105353 -8.61629 -4.22879 0.0811802 -31.2024 -4.00079 -1.37329 -11.1898 -4.0008 -1.37331 70.642 -82.272 -116.223 -29.6748 33.1971 84.3314 174.969 21.1118 -66.2066 -1.91364 0.629019 -58.8862 -75.5883 -56.9036 100.051 126.256 1.28536 -131.52 -136.638 4.50037 -11.2003 114.594 -10.6507 -10.8578 -4.70525 -23.233 -28.4614 155.757 22.3786 -8.8508 
-363.378 80.1264 -10.0215 159.61 33.8757 68.9485 -156.326 34.236 -173.508 118.565 32.4094 175.283 64.2256 1.14844 -6.40064 179.426 -68.0222 6.34818 117.52 -40.0655 47.533 -71.5014 -26.2661 -1.68215 -91.1693 73.31 94.303 93.7524 42.6663 95.4938 -2.99332 11.9045 -89.9058 3.05939 -5.94211 0.132754 -8.59798 -5.93048 0.395086 -31.2366 -5.70637 -1.66519 -11.224 -5.70634 -1.66519 63.4976 -79.2983 -125.059 -36.0532 26.651 84.4602 154.097 18.6398 -63.1274 1.76124 3.45261 -20.9275 -66.7082 -64.4519 111.285 132.966 6.03794 -134.702 -140.503 -8.67067 -10.0802 106.212 -16.7008 -16.3529 -1.22235 -11.1701 -19.5869 155.563 28.4621 -5.32701 
-369.436 77.3977 -11.0458 163.157 31.0623 67.6825 -156.497 33.725 -171.224 114.39 22.8264 173.947 76.0383 8.80521 0.631502 172.198 -40.7148 16.6293 106.198 -45.6545 38.1823 -75.2717 -28.8895 -4.37934 -99.6723 76.6637 111.526 88.7569 39.3104 97.1551 -3.8728 11.8327 -89.7625 3.20801 -7.64226 0.413271 -8.44056 -7.61662 0.751202 -31.1496 -7.41112 -1.91569 -11.137 -7.41111 -1.91569 59.0008 -76.3683 -131.278 -45.1854 19.8221 84.0804 133.054 12.7641 -78.2352 -0.131161 -3.08287 100.369 -54.8438 -69.9394 124.843 135.451 13.9407 -138.546 -143.105 -23.2281 -8.09798 97.6352 -22.3906 -23.157 -0.125832 2.9096 -11.691 155.063 35.7929 -1.07518 
-376.652 74.8432 -12.3943 165.948 28.3478 66.8151 -155.654 33.8433 -171.127 108.328 17.1767 172.772 80.7164 15.0551 5.05122 162.128 -27.1128 20.7443 90.3982 -49.9406 24.7162 -75.1311 -30.6422 -6.51553 -109.589 79.3237 128.387 85.2545 36.0413 97.0022 -4.66588 11.7199 -89.6391 3.44171 -9.17754 0.672992 -8.19696 -9.13894 1.07966 -30.9859 -8.9519 -2.13936 -10.9732 -8.95192 -2.13937 56.3395 -73.7239 -135.502 -61.7598 13.6186 83.3638 119.868 4.35667 -69.2229 -11.6786 -23.7832 126.583 -41.879 -73.0201 138.977 133.665 24.2793 -141.828 -127.792 -40.7554 11.8016 89.1373 -28.7577 -32.3322 -0.788385 21.3459 -5.28331 152.731 47.7742 5.2303 
-384.882 72.8332 -14.1009 167.89 25.8712 66.3106 -152.861 34.5656 -173.432 102.054 14.5499 172.07 79.718 18.8859 8.19588 154.64 -20.3601 23.2016 71.472 -51.4863 8.3467 -70.3059 -31.4712 -7.77985 -114.772 81.296 137.83 83.0761 33.1418 95.4139 -5.28792 11.5543 -89.5614 3.78285 -10.3888 0.867676 -7.84673 -10.3404 1.32902 -30.7092 -10.164 -2.32838 -10.6966 -10.164 -2.32839 54.7301 -71.8097 -138.276 -110.481 7.94204 83.8519 117.61 9.57877 -26.8591 -13.5455 -34.6574 134.976 -30.9979 -74.2855 150.655 129.234 35.6718 -144.066 145.934 61.2313 -179.909 79.5664 -33.971 -43.0458 -4.82237 39.3621 0.977465 147.863 60.6838 13.5054 
-393.889 71.4617 -16.1031 168.985 23.7025 66.1105 -147.163 35.6522 -178.522 97.4848 14.166 171.969 75.6318 20.8398 10.7757 149.523 -16.8077 24.7097 52.3681 -49.8895 -7.97023 -60.5321 -31.3446 -7.90567 -106.203 82.7684 130.484 81.993 30.7118 92.7947 -5.75221 11.3554 -89.5478 4.18837 -11.31 0.955863 -7.43342 -11.2568 1.45911 -30.3577 -11.0676 -2.53105 -10.345 -11.0675 -2.53105 54.055 -70.3909 -139.779 123.362 1.18751 82.5119 171.134 -68.305 149.53 -9.05434 -9.62615 166.453 -22.6274 -74.6942 159.61 123.224 47.3211 -144.662 146.656 83.1699 -179.604 69.4172 -36.8519 -53.7145 -13.3196 55.0367 9.77918 136.32 72.731 27.5523 
-403.354 70.6976 -18.2748 169.278 21.8613 66.1615 -138.389 36.324 173.432 95.7935 15.5699 172.381 70.7067 21.7647 12.8456 146.069 -14.7814 25.673 34.9667 -45.7455 -22.2637 -45.3574 -30.0849 -6.64498 -79.4702 82.3212 101.736 81.7908 28.7333 89.4846 -6.07884 11.1414 -89.6022 4.61978 -11.9836 0.92189 -6.99577 -11.9313 1.45607 -29.9673 -11.6986 -2.774 -9.95468 -11.6986 -2.774 54.212 -69.2499 -140.205 44.9882 -6.02884 79.6061 -24.0692 11.6128 -0.0130215 97.8567 -63.9487 -67.8307 -16.0193 -74.8527 166.618 115.711 58.6741 -142.823 -31.5516 76.5812 -0.20337 59.9682 -37.616 -63.0313 -30.0026 67.3449 25.8128 97.0668 81.5406 68.4125 
-412.944 70.4458 -20.4637 168.839 20.3349 66.4248 -127.551 35.3716 162.954 97.2787 17.3242 173.201 66.2166 21.844 15.5615 143.713 -13.5122 26.3322 11.8254 -34.5082 -39.501 -7.24 -23.5002 -1.05716 -55.8633 74.4956 64.1929 82.2691 27.1331 85.763 -6.29548 10.9278 -89.7195 5.04423 -12.4633 0.76717 -6.56648 -12.4172 1.32363 -29.5715 -12.1086 -3.07159 -9.55886 -12.1086 -3.07161 55.0947 -68.1708 -139.766 23.9073 -8.65787 77.4848 -15.8981 -23.3015 -0.00972357 26.2871 -37.6169 -114.458 -10.0481 -75.1178 172.776 104.798 69.2392 -136.25 -30.4551 58.3704 -0.0879869 51.9487 -37.0125 -70.5 -109.441 77.7264 103.169 6.93943 69.389 157.797 
